<svg xmlns="http://www.w3.org/2000/svg" viewBox="0 0 120 60" width="120" height="60">
  <!-- Jeep Wordmark with heavy geometric letters -->
  <g fill="#1D1D1F" transform="translate(15, 12)">
    <!-- J -->
    <path d="M 16 0 L 24 0 L 24 23 C 24 29, 16 32, 10 32 C 4 32, 0 29, 0 24 L 8 24 C 8 26, 9 26.5, 11.5 26.5 C 14 26.5, 16 25.5, 16 23 Z" />
    <!-- e -->
    <path d="M 28 17 C 28 10, 33.5 7, 39.5 7 C 46 7, 51 11.5, 51 18.5 L 51 20.5 L 36 20.5 C 36 23, 38.5 24.5, 41.5 24.5 C 44 24.5, 46.5 23.5, 47 21 L 54 21 C 53 27, 48 31, 41 31 C 33 31, 28 25, 28 17 Z
             M 36.5 15.5 L 43.5 15.5 C 43.5 13, 42 12, 40 12 C 38 12, 36.5 13, 36.5 15.5 Z" />
    <!-- e -->
    <path d="M 58 17 C 58 10, 63.5 7, 69.5 7 C 76 7, 81 11.5, 81 18.5 L 81 20.5 L 66 20.5 C 66 23, 68.5 24.5, 71.5 24.5 C 74 24.5, 76.5 23.5, 77 21 L 84 21 C 83 27, 78 31, 71 31 C 63 31, 58 25, 58 17 Z
             M 66.5 15.5 L 73.5 15.5 C 73.5 13, 72 12, 70 12 C 68 12, 66.5 13, 66.5 15.5 Z" />
    <!-- p -->
    <path d="M 88 8 L 95.5 8 L 95.5 10 C 97.5 8, 100.5 7, 103.5 7 C 109.5 7, 114 11.5, 114 19 C 114 26.5, 109.5 31, 103.5 31 C 100.5 31, 97.5 30, 95.5 28 L 95.5 40 L 88 40 Z
             M 95.5 19 C 95.5 22.5, 98 24.5, 101 24.5 C 104 24.5, 106.5 22.5, 106.5 19 C 106.5 15.5, 104 13.5, 101 13.5 C 98 13.5, 95.5 15.5, 95.5 19 Z" />
  </g>
</svg>
