<svg xmlns="http://www.w3.org/2000/svg" viewBox="46 0 160 112" role="img" aria-label="Toyota">
  <path fill="#EB0A1E" d="M120.976 5.883C109.451 2.16 95.164 0 79.677 0 64.19 0 49.903 2.161 38.378 5.883c-30.614 9.844-51.624 30.254-51.624 53.784 0 33.136 41.54 60.148 92.923 60.148 51.264 0 92.923-26.892 92.923-60.148 0-23.53-21.01-43.94-51.624-53.784zm-41.299 88.12c-7.683 0-13.926-15.007-14.286-33.975 4.562.48 9.364.6 14.286.6 4.922 0 9.725-.24 14.287-.6-.36 18.968-6.603 33.975-14.287 33.975Zm-13.326-48.742c2.04-13.326 7.203-22.69 13.326-22.69 6.003 0 11.165 9.364 13.326 22.69-4.202.36-8.764.6-13.326.6-4.562 0-9.004-.24-13.326-.6zm34.816-1.08c-3.121-20.77-11.525-35.777-21.49-35.777-9.964 0-18.368 14.887-21.49 35.776-18.848-3.001-32.055-9.604-32.055-17.408 0-10.565 24.012-19.088 53.545-19.088 29.534 0 53.545 8.523 53.545 19.088 0 7.804-13.206 14.527-32.055 17.408zM0.321 57.505c0-10.204 3.961-19.689 10.805-27.972-.12.6-.12 1.2-.12 1.68 0 12.846 19.208 23.651 45.98 27.733v2.881c0 23.771 6.604 43.94 15.728 50.904C32.135 110.33 0.32 86.56 0.32 57.506zm40.32 55.346c9.123-6.963 15.727-27.133 15.727-50.904v-2.88c26.772-3.963 45.98-14.888 45.98-27.734 0-.6 0-1.2-.12-1.68 6.844 8.163 10.806 17.768 10.806 27.973 0 28.933-31.815 52.704-72.394 55.225z"/>
</svg>
