<svg xmlns="http://www.w3.org/2000/svg" viewBox="0 0 120 40" width="120" height="40"><path fill="currentColor" d="M20.8 8.3c-8.4 0-15.5 5.6-17.6 13.3l6.7 2.2c1.6-6 6.9-10.2 13.3-10.2.5 0 1 .1 1.5.1l3.3-6.1c-1.3-.2-2.6-.3-3.9-.3h-.3zm13.3 5.5l-1.9 6.8c2.4 1.2 4.1 3.6 4.1 6.4 0 4.3-3.4 7.8-7.6 8-.1 0-.3 0-.4.1h-.1c-.3 0-.6.1-1 .1-6.2.1-11.4-4-13.1-9.8l-6.7-2.2c2.1 8.5 9.6 14.8 18.5 14.8 2.1 0 4.2-.3 6.1-1l.5-.2c.1 0 .3-.1.4-.2 4.8-1.8 8.5-5.4 10.3-10l.2-.5.2-.6.2-.7c.1-.2.1-.4.2-.6.2-.8.4-1.6.5-2.4.1-1.5.1-3-.2-4.5l-.1-.4c-.3-1.4-.8-2.7-1.4-3.9-.1-.3-.3-.5-.4-.8l-7.4 9.3z"/><path fill="currentColor" d="M3.2 21.6c0-10.1 8.2-18.3 18.3-18.3 3.8 0 7.4 1.2 10.4 3.3l-17.7 31.4c-6.2-2.8-10.7-8.9-11.3-16l.3-.4z" opacity=".6"/><text x="45" y="26" font-family="-apple-system, BlinkMacSystemFont, 'Segoe UI', sans-serif" font-size="14" font-weight="600" fill="currentColor">NVIDIA</text></svg>
