<svg xmlns="http://www.w3.org/2000/svg" viewBox="0 0 120 40" width="120" height="40"><path fill="currentColor" d="M20 8c-6.6 0-12 5.4-12 12s5.4 12 12 12 12-5.4 12-12S26.6 8 20 8zm0 22c-5.5 0-10-4.5-10-10S14.5 10 20 10s10 4.5 10 10-4.5 10-10 10z"/><path fill="currentColor" d="M20 12c-4.4 0-8 3.6-8 8s3.6 8 8 8 8-3.6 8-8-3.6-8-8-8zm0 14c-3.3 0-6-2.7-6-6s2.7-6 6-6 6 2.7 6 6-2.7 6-6 6z"/><text x="40" y="26" font-family="-apple-system, BlinkMacSystemFont, 'Segoe UI', sans-serif" font-size="13" font-weight="500" fill="currentColor">OpenAI</text></svg>
