<svg xmlns="http://www.w3.org/2000/svg" viewBox="0 0 180 60" width="120" height="40">
  <!-- Samsung Blue Ellipse tilted by -9 degrees -->
  <ellipse cx="90" cy="30" rx="80" ry="25" fill="#0A54A4" transform="rotate(-9, 90, 30)" />
  <!-- White Samsung Wordmark (with the iconic A having no crossbar) -->
  <g fill="#FFFFFF" transform="translate(25, 20)">
    <!-- S -->
    <path d="M 8.2 4.1 C 7.5 2.1, 4.5 2.1, 4.5 3.7 C 4.5 6.3, 10.3 5.4, 10.3 9.4 C 10.3 12.8, 5.5 13.0, 3.0 10.7 L 4.7 9.0 C 6.1 10.5, 8.5 10.5, 8.5 9.4 C 8.5 7.0, 3.0 7.5, 3.0 3.7 C 3.0 0.4, 8.2 0.3, 10.0 2.6 Z" />
    <!-- A -->
    <path d="M 16.5 0.5 L 20.0 12.5 L 17.8 12.5 L 16.5 7.8 L 15.2 12.5 L 13.0 12.5 Z" />
    <!-- M -->
    <path d="M 22.0 12.5 L 22.0 0.5 L 25.0 9.0 L 28.0 0.5 L 28.0 12.5 L 26.2 12.5 L 26.2 4.0 L 25.0 7.5 L 23.8 7.5 L 22.6 4.0 L 22.6 12.5 Z" />
    <!-- S -->
    <path d="M 37.2 4.1 C 36.5 2.1, 33.5 2.1, 33.5 3.7 C 33.5 6.3, 39.3 5.4, 39.3 9.4 C 39.3 12.8, 34.5 13.0, 32.0 10.7 L 33.7 9.0 C 35.1 10.5, 37.5 10.5, 37.5 9.4 C 37.5 7.0, 32.0 7.5, 32.0 3.7 C 32.0 0.4, 37.2 0.3, 39.0 2.6 Z" />
    <!-- U -->
    <path d="M 42.0 0.5 L 44.5 0.5 L 44.5 9.0 C 44.5 10.5, 45.5 10.5, 46.0 10.5 C 46.5 10.5, 47.5 10.5, 47.5 9.0 L 47.5 0.5 L 50.0 0.5 L 50.0 9.0 C 50.0 12.0, 47.5 12.5, 46.0 12.5 C 44.5 12.5, 42.0 12.0, 42.0 9.0 Z" />
    <!-- N -->
    <path d="M 53.0 12.5 L 53.0 0.5 L 54.8 0.5 L 58.5 8.5 L 58.5 0.5 L 60.2 0.5 L 60.2 12.5 L 58.5 12.5 L 54.8 4.5 L 54.8 12.5 Z" />
    <!-- G -->
    <path d="M 68.5 6.5 L 68.5 7.5 L 66.0 7.5 C 66.0 9.5, 67.0 10.8, 68.5 10.8 C 70.0 10.8, 70.5 9.5, 70.5 8.5 L 70.5 7.0 L 68.5 7.0 L 68.5 5.2 L 72.2 5.2 L 72.2 10.0 C 71.0 12.0, 68.5 12.5, 67.5 12.5 C 64.5 12.5, 63.0 10.0, 63.0 6.5 C 63.0 3.0, 65.0 0.5, 68.5 0.5 C 71.0 0.5, 72.0 2.2, 72.2 3.0 L 70.2 3.6 C 70.0 2.8, 69.5 2.2, 68.5 2.2 C 67.0 2.2, 65.2 3.5, 65.2 6.5 Z" />
  </g>
</svg>
