<svg xmlns="http://www.w3.org/2000/svg" viewBox="0 0 120 40" width="120" height="40"><path fill="currentColor" d="M46.5 26.7c0-1.6-.9-2.6-2.5-2.6-1.4 0-2.3.9-2.5 2.6h5zm-6.7.6c0-3.3 2.1-5.3 5-5.3 3 0 4.7 2 4.7 5.3v.8h-6.8c.2 1.7 1.1 2.6 2.6 2.6 1.2 0 2-.5 2.3-1.4h2.6c-.4 2.2-2.2 3.5-4.9 3.5-3.1 0-5.1-2-5.1-5.3v-.2h.6z"/><path fill="currentColor" d="M53.4 21.9h2.4v1.6c.6-1.1 1.7-1.8 3.2-1.8 1.9 0 3.2 1.2 3.2 3.5v6.9h-2.6v-6.3c0-1.3-.6-2-1.7-2-1.2 0-1.9.8-1.9 2.2v6.1h-2.6V21.9z"/><path fill="currentColor" d="M63.5 28.5c0-2.3 1.8-3.7 4.6-3.7h1.8v-.3c0-1.1-.5-1.6-1.5-1.6-.9 0-1.4.4-1.6 1.1h-2.5c.2-1.9 1.7-3.1 4.2-3.1 2.6 0 4 1.3 4 3.5v6.3h-2.4v-1.3c-.6 1-1.7 1.5-3 1.5-2 0-3.4-1.2-3.4-3.2v-.2h.8zm6.4-.7v-.9h-1.4c-1.4 0-2.2.6-2.2 1.6 0 .8.5 1.3 1.4 1.3 1.1 0 2.2-.7 2.2-2z"/><path fill="currentColor" d="M74.1 28.5c0-2.3 1.8-3.7 4.6-3.7h1.8v-.3c0-1.1-.5-1.6-1.5-1.6-.9 0-1.4.4-1.6 1.1h-2.5c.2-1.9 1.7-3.1 4.2-3.1 2.6 0 4 1.3 4 3.5v6.3H81v-1.3c-.6 1-1.7 1.5-3 1.5-2 0-3.4-1.2-3.4-3.2v-.2h.5zm6.4-.7v-.9h-1.4c-1.4 0-2.2.6-2.2 1.6 0 .8.5 1.3 1.4 1.3 1.1 0 2.2-.7 2.2-2z"/><path fill="currentColor" d="M84.8 21.9h2.4v1.6c.6-1.1 1.7-1.8 3.2-1.8 1.9 0 3.2 1.2 3.2 3.5v6.9h-2.6v-6.3c0-1.3-.6-2-1.7-2-1.2 0-1.9.8-1.9 2.2v6.1h-2.6V21.9z"/><text x="35" y="25.5" font-family="-apple-system, BlinkMacSystemFont, 'Segoe UI', sans-serif" font-size="14" font-weight="600" fill="currentColor">Stripe</text></svg>
